<?xml version="1.0" standalone="no"?>
<!DOCTYPE svg PUBLIC "-//W3C//DTD SVG 20010904//EN"
 "http://www.w3.org/TR/2001/REC-SVG-20010904/DTD/svg10.dtd">
<svg version="1.0" xmlns="http://www.w3.org/2000/svg"
 width="512.000000pt" height="512.000000pt" viewBox="0 0 512.000000 512.000000"
 preserveAspectRatio="xMidYMid meet">
<metadata>
Created by potrace 1.14, written by Peter Selinger 2001-2017
</metadata>
<g transform="translate(0.000000,512.000000) scale(0.100000,-0.100000)"
fill="#000000" stroke="none">
<path d="M2860 3929 c-600 -19 -616 -20 -658 -42 -104 -54 -173 -201 -267
-568 l-17 -66 -176 -84 c-250 -119 -621 -347 -658 -405 -42 -63 -44 -110 -39
-724 5 -596 11 -828 21 -855 3 -8 20 -17 37 -20 18 -2 322 -23 677 -45 679
-43 755 -48 860 -55 36 -3 110 -8 165 -11 55 -3 289 -18 520 -34 337 -22 424
-25 440 -15 21 13 33 45 235 605 l81 225 4 605 c4 593 -2 806 -25 874 -12 38
-29 46 -107 46 -51 0 -53 1 -53 28 0 45 -20 262 -31 342 -13 96 -37 180 -56
203 -20 22 -108 21 -953 -4z m816 -468 c-3 -20 -6 -48 -6 -63 l0 -28 -104 0
c-118 0 -163 7 -170 25 -3 8 3 19 12 27 10 8 13 9 9 1 -5 -8 0 -11 13 -10 12
1 20 8 20 18 0 19 33 34 50 24 5 -3 10 0 10 8 0 18 55 33 124 34 l48 0 -6 -36z
m-372 -554 c19 -11 17 -12 -19 -17 -31 -4 -44 -12 -62 -39 -40 -60 -53 -128
-68 -366 -18 -270 -39 -463 -65 -595 -26 -127 -137 -560 -146 -568 -4 -4 -9
-1 -11 6 -4 10 -8 10 -21 0 -12 -11 -16 -11 -20 0 -3 9 -7 10 -17 2 -10 -8
-15 -8 -20 0 -5 8 -10 8 -20 0 -10 -8 -15 -8 -20 0 -5 8 -11 8 -21 -1 -11 -9
-14 -9 -14 0 0 8 -8 10 -20 6 -12 -4 -20 -2 -20 6 0 8 -5 7 -17 -2 -13 -11
-17 -11 -21 -1 -3 10 -7 10 -20 0 -12 -11 -16 -11 -20 0 -3 10 -7 10 -18 1
-11 -9 -15 -8 -20 5 -6 15 -8 15 -19 -1 -13 -17 -14 -17 -20 0 -6 14 -10 15
-22 5 -11 -9 -16 -9 -23 1 -6 10 -9 10 -15 1 -6 -9 -9 -9 -15 1 -7 10 -11 10
-24 0 -14 -11 -16 -11 -16 4 0 17 -1 17 -20 0 -19 -17 -20 -17 -20 0 0 15 -2
16 -17 4 -13 -11 -17 -11 -21 -1 -3 10 -7 10 -19 1 -11 -10 -16 -10 -23 0 -6
10 -9 10 -15 1 -6 -9 -9 -9 -15 1 -7 10 -11 10 -24 0 -12 -10 -16 -10 -16 -2
0 8 -8 10 -20 6 -12 -4 -20 -2 -20 6 0 7 -4 8 -12 2 -18 -13 -58 -14 -58 -1 0
6 -7 5 -17 -3 -13 -11 -17 -11 -21 -1 -3 9 -7 10 -17 2 -10 -8 -15 -8 -20 0
-5 8 -10 8 -20 0 -9 -7 -15 -8 -19 -1 -4 6 -13 8 -21 4 -8 -3 -15 0 -15 7 0 9
-4 9 -17 -1 -13 -11 -17 -11 -21 -1 -3 9 -7 10 -17 2 -10 -8 -15 -8 -20 0 -5
8 -11 8 -21 -1 -8 -7 -14 -7 -14 -1 0 6 -22 9 -55 7 -33 -2 -55 1 -55 7 0 6
-7 4 -17 -3 -13 -11 -17 -11 -21 -1 -3 9 -7 10 -17 2 -10 -8 -15 -8 -20 0 -5
8 -11 8 -21 -1 -11 -9 -14 -8 -14 5 0 11 -4 14 -12 9 -18 -11 -58 -11 -58 0 0
5 -7 3 -17 -4 -13 -11 -17 -11 -21 -1 -3 9 -7 10 -17 2 -10 -8 -15 -8 -20 0
-5 8 -11 8 -21 -1 -9 -8 -14 -8 -14 -1 0 7 -14 9 -35 7 -22 -3 -35 -1 -35 6 0
7 -6 7 -17 -2 -13 -11 -17 -11 -21 -1 -3 10 -7 10 -18 1 -8 -6 -14 -7 -14 -2
0 5 -16 8 -35 7 -20 -2 -35 1 -35 8 0 6 -7 5 -17 -3 -13 -11 -17 -11 -21 -1
-3 10 -7 10 -18 1 -11 -9 -14 -9 -14 0 0 9 -5 9 -20 1 -15 -8 -20 -8 -20 1 0
8 -4 8 -15 -1 -37 -31 -10 40 72 188 175 315 206 384 246 547 20 83 46 224 57
315 28 220 44 287 79 330 41 51 120 108 166 120 59 14 1482 2 1509 -13z"/>
<path d="M3460 3429 c0 -5 5 -7 10 -4 6 3 10 8 10 11 0 2 -4 4 -10 4 -5 0 -10
-5 -10 -11z"/>
<path d="M2310 2724 c-71 -14 -156 -50 -201 -86 -58 -45 -190 -222 -293 -389
-104 -170 -233 -427 -241 -482 -19 -124 85 -193 302 -204 237 -12 453 56 453
142 0 31 9 32 -125 -17 -86 -31 -96 -33 -235 -33 -130 0 -149 2 -186 22 -79
42 -83 114 -12 253 147 290 376 574 521 645 109 53 194 47 261 -18 62 -61 88
-135 89 -257 1 -204 -82 -369 -218 -436 -43 -21 -57 -23 -74 -14 -12 6 -21 15
-21 21 0 5 28 67 63 137 66 135 126 296 114 308 -3 4 -29 9 -56 12 -43 4 -50
2 -56 -17 -9 -28 -29 -27 -49 4 -38 58 -139 18 -234 -93 -103 -120 -212 -305
-212 -360 0 -53 21 -67 97 -67 57 0 80 5 134 33 77 37 89 39 89 12 0 -27 49
-50 107 -50 150 0 323 106 386 234 92 188 83 457 -21 609 -46 66 -107 89 -247
93 -60 1 -121 0 -135 -2z m24 -490 c23 -9 20 -33 -18 -123 -52 -124 -104 -210
-139 -232 -44 -26 -113 -26 -122 1 -14 43 98 233 185 314 49 45 63 52 94 40z"/>
</g>
</svg>
